<?xml version="1.0" standalone="no"?>
<!DOCTYPE svg PUBLIC "-//W3C//DTD SVG 1.1//EN" "http://www.w3.org/Graphics/SVG/1.1/DTD/svg11.dtd" >
<!--
2013-9-30: Created.
-->
<svg>
<metadata>
Created by iconfont
</metadata>
<defs>

<font id="" horiz-adv-x="1024" >
  <font-face
    font-family=""
    font-weight="500"
    font-stretch="normal"
    units-per-em="1024"
    ascent="896"
    descent="-128"
  />
    <missing-glyph />
    
    <glyph glyph-name="x" unicode="x" horiz-adv-x="1001"
d="M281 543q-27 -1 -53 -1h-83q-18 0 -36.5 -6t-32.5 -18.5t-23 -32t-9 -45.5v-76h912v41q0 16 -0.5 30t-0.5 18q0 13 -5 29t-17 29.5t-31.5 22.5t-49.5 9h-133v-97h-438v97zM955 310v-52q0 -23 0.5 -52t0.5 -58t-10.5 -47.5t-26 -30t-33 -16t-31.5 -4.5q-14 -1 -29.5 -0.5
t-29.5 0.5h-32l-45 128h-439l-44 -128h-29h-34q-20 0 -45 1q-25 0 -41 9.5t-25.5 23t-13.5 29.5t-4 30v167h911zM163 247q-12 0 -21 -8.5t-9 -21.5t9 -21.5t21 -8.5q13 0 22 8.5t9 21.5t-9 21.5t-22 8.5zM316 123q-8 -26 -14 -48q-5 -19 -10.5 -37t-7.5 -25t-3 -15t1 -14.5
t9.5 -10.5t21.5 -4h37h67h81h80h64h36q23 0 34 12t2 38q-5 13 -9.5 30.5t-9.5 34.5q-5 19 -11 39h-368zM336 498v228q0 11 2.5 23t10 21.5t20.5 15.5t34 6h188q31 0 51.5 -14.5t20.5 -52.5v-227h-327z" />
    

    
    <glyph glyph-name="tel" unicode="&#58931;" d="M407.6 278C488 198.10000000000002 581 121.70000000000005 617.5 158.60000000000002c52.3 52.8 84.5 98.7 200.5 6 116-92.8 27.4-155.2-23.2-206.4-58.4-59-277.3-4.1-494.3 211.6C83.6 385.6 27.1 604.6 85.6 663.6c50.7 51.2 112.3 140.4 205.7 24.8 93.4-115.5 47.9-148.2-4.4-200.9C250.4 450.6 327.3 358 407.6 278z m116.6 381.4s-24.2 3.8-41.2-13.2c-17.5-17.5-18.2-47.7 0.2-66.1 10.9-10.9 26.2-13.2 26.2-13.2 29.9-5.6 75-15.1 123-63.2s57.5-93.2 63.1-123.2c0 0 2.3-15.4 13.2-26.3 18.4-18.4 48.5-17.7 66-0.2 17 17 13.2 41.3 13.2 41.3C778.4 456 749 519.4 698.6 570c-50.6 50.4-113.9 79.9-174.4 89.4z m227.4-36.3C839.5 535 877 435 864.8 354c0 0-4.3-25.7 12.5-42.4 18.8-18.9 48.7-17.8 66.3-0.1 11.3 11.3 13.8 29.8 13.8 29.8 10.1 70-2.6 210.9-139.6 348.2-137 137.3-277.6 150-347.4 139.9 0 0-18.4-2.5-29.7-13.8-17.6-17.7-18.7-47.6 0.1-66.4 16.7-16.8 42.3-12.5 42.3-12.5 80.8 12.1 180.5-25.4 268.5-113.6z"  horiz-adv-x="1024" />

    
    <glyph glyph-name="broadcast" unicode="&#58932;" d="M671 427.4h289v-28.9H671zM642.1 543h173.4v-28.9H642.1zM613.2 282.79999999999995h144.5v-28.9H613.2zM288.1 266.5l212.2-212.2-5.4 659.4-212.2-212.2H64v-235h224.1z"  horiz-adv-x="1024" />

    
    <glyph glyph-name="clock" unicode="&#58933;" d="M512-64C265-64 64 137 64 384S265 832 512 832s448-201 448-448-201-448-448-448z m0 857c-225.6 0-409-183.5-409-409s183.5-409 409-409 409 183.5 409 409-183.4 409-409 409z m-19.5-448c-10.8 0-19.5 8.7-19.5 19.5V695.7c0 10.8 8.7 19.5 19.5 19.5s19.5-8.7 19.5-19.5v-331.1c0-10.8-8.7-19.6-19.5-19.6z m272.7 0H492.5c-10.8 0-19.5 8.7-19.5 19.5s8.7 19.5 19.5 19.5h272.7c10.8 0 19.5-8.7 19.5-19.5 0-10.7-8.7-19.5-19.5-19.5z"  horiz-adv-x="1024" />

    
    <glyph glyph-name="expire" unicode="&#58934;" d="M512-64C265-64 64 137 64 384S265 832 512 832s448-201 448-448-201-448-448-448z m0 857c-225.6 0-409-183.5-409-409s183.5-409 409-409 409 183.5 409 409-183.4 409-409 409zM512 216c-92.8 0-168 75.2-168 168s75.2 168 168 168 168-75.2 168-168-75.2-168-168-168z m0 37.3c72.2 0 130.7 58.5 130.7 130.7S584.2 514.7 512 514.7 381.3 456.2 381.3 384 439.8 253.29999999999995 512 253.29999999999995z"  horiz-adv-x="1024" />

    
    <glyph glyph-name="money" unicode="&#58935;" d="M512-64C265-64 64 137 64 384S265 832 512 832s448-201 448-448-201-448-448-448z m0 857c-225.6 0-409-183.5-409-409s183.5-409 409-409 409 183.5 409 409-183.4 409-409 409zM353.1 586.5l126-218.6H383v-24.5h109.9v-62.7H383v-24.5h109.9V160h38.2v96.2H641v24.5H531.1v62.7H641v24.5h-96.1l126 218.6h-44.2L512 381 397.3 586.5z"  horiz-adv-x="1024" />

    
    <glyph glyph-name="doubleArr-b" unicode="&#58936;" d="M643.2 449.6L960 766.4H64l316.8-316.8H64l448-448 448 448H643.2z"  horiz-adv-x="1024" />

    
    <glyph glyph-name="investRecord" unicode="&#58937;" d="M176 776c-30.9 0-56-25.1-56-56v-672c0-30.9 25.1-56 56-56h672c30.9 0 56 25.1 56 56V720c0 30.9-25.1 56-56 56H176z m0 56h672c61.9 0 112-50.1 112-112v-672c0-61.9-50.1-112-112-112H176c-61.9 0-112 50.1-112 112V720c0 61.9 50.1 112 112 112zM517.5 294.20000000000005c11.1-10.4 29.1-10.4 40.2 0l226 212.2c11.1 10.4 11.1 27.3 0 37.8-11.1 10.4-29.1 10.4-40.2 0L537.6 350.9l-109 102.3c-11.1 10.4-29.1 10.4-40.2 0L184.3 261.6c-11.1-10.4-11.1-27.3 0-37.8 11.1-10.4 29.1-10.4 40.2 0l183.9 172.7 109.1-102.3z"  horiz-adv-x="1024" />

    
    <glyph glyph-name="card" unicode="&#58938;" d="M862.5 720h-701C107.7 720 64 674.4 64 618.3v-468.5c0-56.1 43.7-101.7 97.5-101.7h701c53.8 0 97.5 45.6 97.5 101.7V618.3c0 56.1-43.7 101.7-97.5 101.7z m46.2-570.3c0-26.6-20.7-48.2-46.2-48.2h-701c-25.4 0-46.2 21.6-46.2 48.2V618.3c0 26.6 20.7 48.2 46.2 48.2h701c25.5 0 46.2-21.6 46.2-48.2v-468.6zM822.5 552h-285c-14.1 0-25.5-12.5-25.5-28s11.4-28 25.5-28h285.1c14.1 0 25.5 12.5 25.5 28-0.1 15.5-11.5 28-25.6 28zM822.5 440h-285c-14.1 0-25.5-12.5-25.5-28s11.4-28 25.5-28h285.1c14.1 0 25.5 12.5 25.5 28-0.1 15.5-11.5 28-25.6 28zM823.5 272h-231c-13.5 0-24.5-12.5-24.5-28s10.9-28 24.5-28h231.1c13.5 0 24.5 12.5 24.5 28s-11 28-24.6 28zM456.6 374.5c29.2 24.2 47.9 60.7 47.9 101.5 0 72.8-59.4 132-132.4 132-73.1 0-132.5-59.2-132.5-132 0-40.8 18.6-77.3 47.9-101.5-51.7-23.5-92.4-68.2-110.2-125.5-4.2-13.4 3.3-27.6 16.8-31.8 13.5-4.1 27.7 3.3 31.9 16.7C246 298.5 304.7 342 372 342c67.2 0 126-43.4 146.1-108.1 3.4-10.9 13.5-17.9 24.4-17.9 2.5 0 5 0.4 7.6 1.1 13.4 4.2 21 18.4 16.8 31.8C549 306.20000000000005 508.3 351 456.6 374.5zM372 557.2c44.9 0 81.5-36.4 81.5-81.2 0-44.8-36.5-81.2-81.5-81.2-44.9 0-81.5 36.4-81.5 81.2 0 44.8 36.6 81.2 81.5 81.2z"  horiz-adv-x="1024" />

    
    <glyph glyph-name="gift" unicode="&#58939;" d="M537.3 19.299999999999955V384H848v-381.3l-4.1 16.6H537.3zM483.7 384v-364.7H177.1V384h306.6z m0 167.2v-112.4H120.6V551.2h363.1z m53.6-112.5V551.2h363.2v-112.4H537.3z m-74.4 170.2h-95.3c-65.5 0-136.9 33.5-136.9 97.3 0 30.3 14.9 42.5 50.6 42.5 68.5 0 142.8-82.1 181.6-139.8z m327.4 94.2c0-60.8-68.5-97.3-134-97.3H561c38.7 60.8 110.2 142.9 178.6 142.9 35.8 0 50.7-15.2 50.7-45.6z m110.2-97.2h-95.2c23.7 24.3 41.6 57.8 41.6 97.3 0 48.6-26.8 100.3-107.1 100.3-101.2 0-187.6-109.4-229.3-170.2-41.6 60.7-128 170.1-232.2 170.1-77.4 0-107.2-51.7-107.2-100.3 0-39.5 14.9-72.9 41.7-97.3h-92.2c-29.7 0-56.6-24.3-56.6-54.7V384h56.6v-364.7c0-30.4 23.9-54.7 56.6-54.7H847c29.8 0 56.6 24.3 56.6 54.7V384H960l-3 167.2c0 30.4-23.8 54.7-56.5 54.7z"  horiz-adv-x="1024" />

    
    <glyph glyph-name="summary" unicode="&#58940;" d="M624.8 384c0-20 10.7-38.6 28.1-48.6 17.4-10 38.7-10 56.1 0s28.1 28.5 28.1 48.6-10.7 38.6-28.1 48.6c-17.4 10-38.8 10-56.1 0-17.4-10-28.1-28.6-28.1-48.6z m-168.3 0c0-31 25.1-56.1 56.1-56.1s56.1 25.1 56.1 56.1c0 20-10.7 38.6-28.1 48.6-17.4 10-38.8 10-56.1 0-17.3-10-28-28.6-28-48.6z m-168.2 0c0-20 10.7-38.6 28.1-48.6 17.4-10 38.7-10 56.1 0s28.1 28.5 28.1 48.6-10.7 38.6-28.1 48.6c-17.4 10-38.7 10-56.1 0S288.3 404 288.3 384zM512-64C264.9-64 64 137 64 384.1S264.9 832 512 832c247 0 448-200.9 448-447.9S759-64 512-64z m0 862.6C283.4 798.6 97.4 612.7 97.4 384c0-228.6 186-414.6 414.6-414.6 228.5 0 414.6 186 414.6 414.6 0 228.7-186.1 414.6-414.6 414.6z"  horiz-adv-x="1024" />

    
    <glyph glyph-name="msg" unicode="&#58941;" d="M259.5 468.1c0-30.4 24-56.1 54.3-56.1s54.3 24.8 54.3 56.1c0 30.4-24 56.1-54.3 56.1-30.4-0.8-54.3-25.6-54.3-56.1m197.9 0c0-30.4 24-56.1 54.3-56.1 30.4 0 54.3 24.8 54.3 56.1 0 30.4-24 56.1-54.3 56.1-30.3-0.8-54.3-25.6-54.3-56.1m198 0c0-30.4 24-56.1 54.3-56.1 30.4 0 54.3 24.8 54.3 56.1 0 30.4-24 56.1-54.3 56.1-30.3-0.8-54.3-25.6-54.3-56.1M735.1-36.299999999999955c-4 0-8.6 1.6-12.1 4.1L562.6 92.39999999999998H163.1c-54.8 0-99.1 46.6-99.1 104v504c0 57.4 44.3 103.9 99.1 103.9h697.8c54.8 0 99.1-46.5 99.1-103.9v-503.5c0-57.4-44.8-103.9-99.1-103.9H754.7v-108.6c0-7.8-4.5-15-11.1-18.6-2.4-1-5.5-2.1-8.5-2.1z m-572 799.2c-32.7 0-59.4-28.4-59.4-63.1v-503.5c0-34.6 26.7-63.1 59.4-63.1h406c4.5 0 8.6-1.6 12.1-4.1L715 25.200000000000045v87.4c0 5.7 2 10.9 6 14.5 3.5 3.6 9.1 6.2 14.1 6.2h126.3c32.7 0 59.4 28.4 59.4 63.1v504c0 34.6-26.7 63.1-59.4 63.1H163.1v-0.6z"  horiz-adv-x="1024" />

    
    <glyph glyph-name="arr-b" unicode="&#58942;" d="M512 266.29999999999995L158.8 619.5c-21.7 21.7-56.8 21.7-78.5 0-21.7-21.7-21.7-56.8 0-78.5l392.5-392.5c10.8-10.8 25-16.3 39.2-16.3 14.2 0 28.4 5.4 39.2 16.3L943.7 541c21.7 21.7 21.7 56.8 0 78.5-21.7 21.7-56.8 21.7-78.5 0L512 266.29999999999995z"  horiz-adv-x="1024" />

    
    <glyph glyph-name="note" unicode="&#58943;" d="M740.9 464.3H286.7c-11.2 0-20.6 9-20.6 20.2s9.4 20.2 20.6 20.2H741c11.2 0 20.6-9 20.6-20.2s-9.5-20.2-20.7-20.2z m-132.1-157H286.7c-11.2 0-20.6 11.2-20.6 22.4s9.4 22.4 20.6 22.4h322.1c11.2 0 20.6-11.2 20.6-22.4s-9.4-22.4-20.6-22.4z m57.8-156.9H286.7c-11.2 0-20.6 11.2-20.6 22.4s9.4 22.4 20.6 22.4h379.9c11.2 0 20.6-11.2 20.6-22.4s-9.4-22.4-20.6-22.4zM641.9 625.7H382.1c-43.9 0-78.4 33.6-78.4 76.2 0 36.3 25.1 65.5 60 73.5 8.5 32.7 39 56.5 76.2 56.5h144.3c37.2 0 67.6-23.3 76.2-56.5 34.9-7.6 60-37.7 60-74-0.1-42.5-34.6-75.7-78.5-75.7z m-202 165.9c-21.1 0-37.2-14.8-37.2-34.5 0-11.2-9.4-20.6-20.6-20.6-21.1 0-37.2-13.5-37.2-33.2s16.1-32.7 37.2-32.7h259.8c21.1 0 37.2 13.5 37.2 33.2s-16.1 33.6-37.2 33.6c-11.2 0-20.6 9-20.6 20.2 0 19.7-16.1 34.1-37.2 34.1H439.9zM801-64H223c-56.9 0-103 46.2-103 103.1V617.6c0 57 46.1 103.1 103 103.1h101.3c11.2 0 20.6-9.4 20.6-20.6s-9.4-20.6-20.6-20.6H223c-34 0-61.8-27.8-61.8-61.9v-578.5c0-34.1 27.8-61.9 61.8-61.9h578c34 0 61.8 27.8 61.8 61.9V617.6c0 34.1-27.8 61.9-61.8 61.9H699.7c-11.2 0-20.6 9.4-20.6 20.6s9.4 20.6 20.6 20.6H801c56.9 0 103-46.2 103-103.1v-578.5c0-56.5-46.1-103.1-103-103.1z"  horiz-adv-x="1024" />

    
    <glyph glyph-name="date" unicode="&#58944;" d="M935.4 695.4c-15.7 15.8-37.1 24.7-59.4 24.6H764V832h-56v-25.8c-0.1-0.8-0.4-1.4-0.4-2.2v-84H344V832h-56v-112H148c-22.4 0-43.5-8.7-59.4-24.6S64 658.5 64 636v-616c0-22.4 8.8-43.5 24.6-59.4s37-24.6 59.4-24.6h728c22.4 0 43.5 8.8 59.4 24.6s24.6 37 24.6 59.4V636c0 22.5-8.7 43.5-24.6 59.4zM904 20c0-7.4-2.9-14.6-8.2-19.8-5.3-5.3-12.4-8.2-19.8-8.2H148c-7.4 0-14.6 2.9-19.8 8.2-5.3 5.3-8.2 12.4-8.2 19.8V440h784v-420z m0 476H120V636c0 7.5 2.9 14.5 8.2 19.8 5.3 5.3 12.3 8.2 19.8 8.2h140v-84h56v84h363.6v-56c0-0.8 0.4-1.4 0.4-2.2V580h56v84h112c7.5 0 14.5-2.9 19.8-8.2 5.3-5.2 8.2-12.4 8.2-19.8v-140zM456 328H232v-56h224v56z m336 0H568v-56h224v56zM456 160H232v-56h224v56z m336 0H568v-56h224v56z"  horiz-adv-x="1024" />

    
    <glyph glyph-name="settings" unicode="&#58945;" d="M626.6-64h-0.3c-6.9 0-13.3 3.5-17 9.2-21.6 33.1-57.9 52.9-97.3 52.9s-75.8-19.8-97.3-52.9c-3.7-5.8-10.1-9.2-17-9.2-3.6 0-7.3 0.9-10.4 2.7L190.2 52.60000000000002c-9.4 5.4-12.8 17.2-7.9 26.8 17.9 35.3 16.8 76.7-2.9 110.9-19.9 34.5-55.5 56.1-95.3 58-6.9 0.3-13.2 4.2-16.7 10.2l-0.6 1.1c-1.8 3.1-2.7 6.6-2.7 10.2V496.5c0 10.9 8.6 19.9 19.5 20.3 40.1 1.7 75.9 23.3 95.9 58 20.3 35.1 20.9 77.5 1.6 113.3-3.3 6.2-3.2 13.6 0.3 19.7 1.8 3.1 4.4 5.8 7.5 7.6l197 113.8c9.5 5.5 21.7 2.4 27.4-6.9 21.3-34.6 58.3-55.3 98.9-55.3s77.5 20.7 98.9 55.3c5.8 9.4 17.9 12.4 27.4 6.9l196.9-113.8c3.1-1.8 5.7-4.4 7.5-7.5 3.5-6.1 3.6-13.6 0.3-19.8-19.3-35.8-18.6-78.2 1.6-113.3 20-34.7 55.8-56.3 95.9-58 10.9-0.5 19.5-9.4 19.5-20.3v-226.8c0-3.6-0.9-7.1-2.7-10.2l-0.6-1.1c-3.5-6-9.7-9.8-16.7-10.2-39.8-1.8-75.5-23.5-95.3-58-19.7-34.2-20.8-75.6-2.9-110.9 4.9-9.6 1.4-21.4-7.9-26.8L636.7-61.299999999999955c-3-1.8-6.5-2.7-10.1-2.7zM512 38.700000000000045c46.7 0 90.3-20.6 119.9-55.9l166 95.9c-15.7 43.3-11.8 91.4 11.6 131.9 23.7 41 63.9 68.6 109.9 76.3V478.2c-46 7.6-86.2 35.2-109.9 76.3-24 41.7-27.6 90.9-10.5 135l-165 95.3c-29.6-36.9-73.9-58.4-122-58.4-48.1 0-92.4 21.5-122 58.4l-165-95.3c17.1-44.1 13.6-93.3-10.5-135-23.7-41.1-63.9-68.7-109.9-76.3v-191.3c46-7.6 86.2-35.2 109.9-76.3 23.4-40.5 27.3-88.6 11.6-131.9l166-95.9c29.6 35.4 73.2 55.9 119.9 55.9zM512 192.39999999999998c-104.7 0-189.9 85.3-189.9 190 0 104.8 85.2 190 189.9 190s189.9-85.3 189.9-190-85.2-190-189.9-190z m0 339.5c-82.3 0-149.2-67-149.2-149.4S429.7 233.10000000000002 512 233.10000000000002s149.2 67 149.2 149.4S594.3 531.9 512 531.9z"  horiz-adv-x="1024" />

    
    <glyph glyph-name="contract" unicode="&#58946;" d="M176 776c-30.9 0-56-25.1-56-56v-672c0-30.9 25.1-56 56-56h672c30.9 0 56 25.1 56 56V720c0 30.9-25.1 56-56 56H176z m0 56h672c61.9 0 112-50.1 112-112v-672c0-61.9-50.1-112-112-112H176c-61.9 0-112 50.1-112 112V720c0 61.9 50.1 112 112 112zM288 580h448v-56H288zM288 412h448v-56H288zM288 244h448v-56H288z"  horiz-adv-x="1024" />

    
    <glyph glyph-name="go" unicode="&#58947;" d="M512 384m-448 0a448 448 0 1 1 896 0 448 448 0 1 1-896 0ZM571 382L422.5 233.5c-9.1-9.1-9.1-23.9 0-33 9.1-9.1 23.9-9.1 33 0l165 165c4.6 4.6 6.8 10.5 6.8 16.5s-2.3 11.9-6.8 16.5l-165 165c-9.1 9.1-23.9 9.1-33 0-9.1-9.1-9.1-23.9 0-33L571 382z"  horiz-adv-x="1024" />

    
    <glyph glyph-name="shield" unicode="&#58948;" d="M512 384m-448 0a448 448 0 1 1 896 0 448 448 0 1 1-896 0ZM735.2 588.9l-2.3 0.9-20.1 1.2c-58.2 3.6-114 22.7-160.4 55l-3.6 2.5c-21.8 15.2-52.2 14.9-73.7-0.7-46.3-33.5-102.4-53.7-161.3-58l-18.9-1.4-2.3-0.9c-22.3-8.5-36.8-28.5-36.8-50.5v-182.1c0-11.6 1.9-23.2 5.7-34.3l0.4-1.2c8.1-23.8 18.7-46.9 31.7-68.9 2.7-4.5 7.7-7.4 13.3-7.5s10.9 2.4 13.8 6.8c2.9 4.3 3.1 9.8 0.5 14.3-12 20.4-21.8 41.7-29.3 63.8l-0.4 1.2c-2.8 8.4-4.3 17.1-4.3 25.8V537c0 9.8 6 18.8 15.6 23.3l13.6 1c65.1 4.7 127.1 27 178.3 64 10.3 7.4 24.8 7.6 35.2 0.3l3.6-2.5c51.3-35.7 112.9-56.8 177.2-60.8l14.8-0.9c9.7-4.4 15.9-13.5 15.9-23.4v-181.9c0-8.7-1.4-17.3-4.2-25.6-28-83.2-88.2-154.2-169.2-200l-9.4-5.3-0.7-0.5c-12.9-9.2-28.8-14.3-45.2-14.3h-0.4c-16.6 0.1-32.6 5.3-45.5 14.8l-0.7 0.5-8.6 5c-31.3 18.1-59.7 40.1-84.3 65.5-3.7 3.8-9.4 5.6-14.9 4.5-5.5-1-10-4.6-11.7-9.5s-0.6-10.2 3.1-14c26.5-27.4 57.2-51.2 91-70.7l7.1-4.1c18.3-13.2 40.9-20.4 64.2-20.6h0.6c23.1 0 45.6 7 63.9 19.9l7.9 4.5c87.5 49.4 152.4 126.1 182.7 215.8 3.7 11 5.6 22.5 5.6 34V538.1c0.1 22.3-14.8 42.5-37.5 50.8zM531.1 477.2c-9.1 0-16.5-6.6-16.5-14.8v-75.3h-90.2c-9.1 0-16.5-6.6-16.5-14.8 0-8.2 7.4-14.8 16.5-14.8h90.2V279c0-8.2 7.4-14.8 16.5-14.8s16.5 6.6 16.5 14.8v78.5h86.9c9.1 0 16.5 6.6 16.5 14.8 0 8.2-7.4 14.8-16.5 14.8h-86.9v75.3c0 8.2-7.4 14.8-16.5 14.8z"  horiz-adv-x="1024" />

    
    <glyph glyph-name="control" unicode="&#58949;" d="M512 384m-448 0a448 448 0 1 1 896 0 448 448 0 1 1-896 0ZM769.1 625.2H255c-10.3 0-18.7-8.4-18.7-18.9l0.7-338.6c0-10.5 8.3-18.9 18.7-18.9h78.4c5.7 0 11 2.6 14.5 7l101.7 136.9 50.3-41.1c7.6-6.4 18.8-5.6 25.6 1.7l89.8 97.6c9-5.6 22.1-11.5 33.4-11.5 32.9 0 59.8 27.1 59.8 60.5s-26.8 60.5-59.8 60.5c-32.9 0-59.8-27.1-59.8-60.5 0-8 3.6-19.4 6.5-26.4l-85.8-87.8-48.6 40.7c-3.8 3.2-8.8 4.7-13.8 4.3s-9.5-3-12.7-6.9l-110.7-144h-53.1V590.1H753v-305.5H492.8c-10.3 0-18.7-8.4-18.7-18.9V173H364.4c-10.3 0-18.9-7.3-18.9-17.8s9.1-16 19.4-16H616c10.3 0 18.4 5.5 18.4 16s-8.6 17.8-18.9 17.8H507v80.8h262c10.3 0 18.7 8.4 18.7 18.9V606.3c0.1 10.5-8.3 18.9-18.6 18.9z m-117.9-93c16.9 0 30.7-13.9 30.7-31.1 0-17.2-13.8-31.1-30.7-31.1s-30.7 13.9-30.7 31.1c0 17.2 13.8 31.1 30.7 31.1z"  horiz-adv-x="1024" />

    
    <glyph glyph-name="earth" unicode="&#58950;" d="M512 384m-448 0a448 448 0 1 1 896 0 448 448 0 1 1-896 0ZM512 694.2c-171.2 0-310.2-138.9-310.2-310.2s139-310.2 310.2-310.2 310.2 139 310.2 310.2-139 310.2-310.2 310.2z m118.3-386.3c2.5 25.6 3.3 50.5 3.3 76.1 0 22.3-0.8 45.5-3.3 67.8l-1.7 16.5 16.5-3.3c33.9-6.6 148-33.9 148-81.9 0-57.9-106.7-83.5-148.9-90.2l-16.5-2.5 2.6 17.5z m-29 153.8c2.5-25.6 4.1-52.1 4.1-77.7 0-65.3-7.4-137.3-28.9-199.3-8.3-24.8-31.4-82.7-64.5-82.7-48 0-75.3 114.1-81.1 148l-3.3 16.5 16.5-1.7c22.3-1.7 45.5-3.3 67.8-3.3 7.4 0 14.1 6.6 14.1 14.1 0 7.4-6.6 14.1-14.1 14.1-26.5 0-52.1 1.7-77.7 4.1l-10.8 0.8-0.8 10.8c-2.5 25.6-4.1 52.1-4.1 77.7 0 7.4-6.6 14.1-14.1 14.1s-14.1-6.6-14.1-14.1c0-22.3 0.8-45.5 3.3-67.8l1.7-16.5-16.5 3.3C344.1 308.70000000000005 230 336 230 384c0 33.1 57.1 56.2 82.7 64.5 62 21.5 134 28.9 199.3 28.9 26.5 0 52.1-1.7 77.7-4.1l10.8-0.8 0.8-10.8zM512 666c48 0 75.3-114.1 81.9-148l3.3-16.5-16.5 1.7c-22.3 1.7-45.5 3.3-67.8 3.3-25.6 0-50.5-1.7-76.1-3.3l-16.5-1.7 2.5 16.5c5.7 41.3 31.3 148 89.2 148z m249-207.6c-38 19.8-84.4 31.4-126.5 38l-9.1 1.7-1.7 9.1c-6.6 42.2-18.2 88.5-38 126.5l-14.9 28.1 29.8-9.9c83.5-28.1 149.7-94.3 177.8-177.8l9.9-29.8-27.3 14.1zM426.8 628.8c-19.8-37.2-29.8-81.9-34.7-123.2l-0.8-9.1-9.1-1.7c-39.7-6.6-82.7-18.2-118.3-36.4l-28.1-14.9 9.9 29.8c26.5 79.4 87.7 143.1 165.4 172.9l32.3 12.4-16.6-29.8zM263 309.6c38-19.8 84.4-31.4 126.5-38l9.1-1.7 1.7-9.1c6.6-42.2 18.2-88.5 38-126.5l14.9-28.1-29.8 9.9c-84.3 28.9-150.4 95-178.5 178.6l-9.9 29.8 28-14.9zM586.4 135c19 35.6 29.8 78.6 36.4 118.3l1.7 9.1 9.1 0.8c41.4 5 86 14.9 123.2 34.7l30.6 15.7-12.4-32.2c-30.6-77.7-93.5-138.9-172.9-165.4l-29.8-9.9 14.1 28.9z"  horiz-adv-x="1024" />

    
    <glyph glyph-name="safety" unicode="&#58951;" d="M512 384m-448 0a448 448 0 1 1 896 0 448 448 0 1 1-896 0ZM467 590.8H310c-26.2 0-39.2-13.6-39.2-40.8v-400.9c0-27.2 13.1-40.8 39.2-40.8h369.5c26.2 0 39.2 13.6 39.2 40.8V374.70000000000005s0 17-13.1 17-9.8-17-9.8-17v-235.8H296.9V560.2h170s13.1-3.4 13.1 13.6c0.1 17-13 17-13 17zM613.4 227.5c0-7.9-6-15.8-11.9-15.8H351.6c-6 0-11.9 7.9-11.9 15.8s6 15.8 11.9 15.8h249.9c8.9 0 11.9-7.9 11.9-15.8z m-261.8 91c-6 0-11.9 7.9-11.9 15.8s6 15.8 11.9 15.8h251.9c6 0 11.9-7.9 11.9-15.8s-6-15.8-11.9-15.8H351.6z m127.9 102.8H351.6c-6 0-11.9 7.9-11.9 15.8s6 15.8 11.9 15.8h125c6 0 11.9-7.9 11.9-15.8-0.1-7.9-3-15.8-9-15.8zM637.6 419.8c31.3 9.9 56.8 26.4 75.5 49.6 15.2 18.7 26.4 41.6 33.1 68 11.1 44.6 5.6 83.5 5.6 85.1-0.6 3.6-3.2 6.6-7 8l-105.4 28.1c-4.4 1.4-9.1 1.4-12.9 0h-0.3l-105.7-28.4c-3.8-1.4-6.4-4.4-7-8-0.3-1.7-5.6-40.8 5.6-85.1 6.7-26.4 17.9-49.3 33.1-68 19-23.1 44.5-39.9 75.5-49.6 1.2-0.6 2.9-1.1 5-1.1 1.7 0.6 3.2 0.9 4.9 1.4z m-97.5 121.8c-7.6 30-7 57.6-5.9 71.3V614l98.7 25.9 98.7-25.9v-1.1c1.2-13.8 1.8-41-5.9-70.8-13.2-52.3-44.2-86.8-92.2-102.7l-0.6-0.3-0.6 0.3c-48.2 15.7-79 50.1-92.2 102.2zM609.2 550.2c-1.7 1.8-4.4 3-7 3-2.6 0-5.2-1.2-7-3-3.8-4.2-3.8-10.8 0-15l30.8-33c2-2.1 4.4-3.3 7-3.3 2.6 0 5.2 1.2 7 3l56.6 59.1c4.1 4.2 4.1 10.8 0.3 15-1.7 2.1-4.4 3.3-7 3.3h-0.3c-2.6 0-4.9-1.2-7-3L633 524.4l-23.8 25.8z"  horiz-adv-x="1024" />

    
    <glyph glyph-name="customer" unicode="&#58952;" d="M512 384m-448 0a448 448 0 1 1 896 0 448 448 0 1 1-896 0ZM418.6 180.39999999999998H339v61.4c-31.9 38.7-51 88.2-51 142.2 0 123.7 100.3 224 224 224s224-100.3 224-224-100.3-224-224-224c-33.4 0-65 7.3-93.4 20.4z m-25.5 157c76.2-100.8 159.8-100.8 237.7-0.1 5.6 7.2 4.2 17.5-3.2 23s-17.8 4.1-23.4-3.1c-64.4-83.3-121.5-83.3-184.4-0.1-5.5 7.3-15.9 8.8-23.3 3.4-7.4-5.5-8.9-15.8-3.4-23.1z"  horiz-adv-x="1024" />

    
    <glyph glyph-name="contract2" unicode="&#58953;" d="M512 384m-448 0a448 448 0 1 1 896 0 448 448 0 1 1-896 0ZM447.6 142.79999999999995h-169c-28.2 0-42.3 14.6-42.3 43.7V616c0 29.1 14.1 43.7 42.3 43.7h397.9c28.2 0 42.3-14.6 42.3-43.7v-138.3s0-18.2-14.1-18.2-10.6 18.2-10.6 18.2V626.9H264.5v-451.4h183.1s14.1 3.6 14.1-14.6-14.1-18.1-14.1-18.1zM615.4 540.5c0 7.9-6.7 15.8-13.5 15.8H318.7c-6.7 0-13.5-7.9-13.5-15.8s6.7-15.8 13.5-15.8h283.2c10.1 0 13.5 7.9 13.5 15.8z m-296.7-91c-6.7 0-13.5-7.9-13.5-15.8s6.7-15.8 13.5-15.8h182c6.7 0 13.5 7.9 13.5 15.8s-6.7 15.8-13.5 15.8h-182z m145-102.8h-145c-6.7 0-13.5-7.9-13.5-15.8s6.7-15.8 13.5-15.8h141.6c6.7 0 13.5 7.9 13.5 15.8s-3.4 15.8-10.1 15.8zM756 211.70000000000005h-28.5l-57 84c25.4 9.7 41.2 32.3 41.2 58.2 0 35.5-28.5 64.6-63.4 64.6s-63.4-29.1-63.4-64.6c0-25.8 15.8-51.7 41.2-58.2l-57-84h-28.5c-15.8 0-28.5-12.9-28.5-29.1v-45.2c0-16.2 12.7-29.1 28.5-29.1h218.7c15.8 0 28.5 12.9 28.5 29.1v45.2c-3.3 16.2-16 29.1-31.8 29.1zM610.2 353.79999999999995c0 22.6 15.8 38.8 38 38.8s38-16.2 38-38.8c0-22.6-15.8-38.8-38-38.8s-38 16.2-38 38.8z m34.9-77.5h6.3l47.5-67.8H597.6l47.5 67.8z m117.2-138.9c0-3.2-3.2-3.2-3.2-3.2H540.5c-3.2 0-3.2 3.2-3.2 3.2v45.2c0 3.2 3.2 3.2 3.2 3.2h218.7c3.2 0 3.2-3.2 3.2-3.2v-45.2zM756 211.70000000000005h-28.5l-57 84c25.4 9.7 41.2 32.3 41.2 58.2 0 35.5-28.5 64.6-63.4 64.6s-63.4-29.1-63.4-64.6c0-25.8 15.8-51.7 41.2-58.2l-57-84h-28.5c-15.8 0-28.5-12.9-28.5-29.1v-45.2c0-16.2 12.7-29.1 28.5-29.1h218.7c15.8 0 28.5 12.9 28.5 29.1v45.2c-3.3 16.2-16 29.1-31.8 29.1zM610.2 353.79999999999995c0 22.6 15.8 38.8 38 38.8s38-16.2 38-38.8c0-22.6-15.8-38.8-38-38.8s-38 16.2-38 38.8z m34.9-77.5h6.3l47.5-67.8H597.6l47.5 67.8z m117.2-138.9c0-3.2-3.2-3.2-3.2-3.2H540.5c-3.2 0-3.2 3.2-3.2 3.2v45.2c0 3.2 3.2 3.2 3.2 3.2h218.7c3.2 0 3.2-3.2 3.2-3.2v-45.2z"  horiz-adv-x="1024" />

    
    <glyph glyph-name="stamp" unicode="&#58954;" d="M512 384m-448 0a448 448 0 1 1 896 0 448 448 0 1 1-896 0ZM358 216h294v28H358v-28z m149.1 364c-38.8 0-70.4-32.2-70.4-74.3 0-27.2 14.6-52 36.4-64.4v-96.6H376c-26.7 0-46.1-22.3-46.1-49.5V258h364v37.2c0 27.2-21.8 49.5-46.1 49.5H541.1v96.6c21.8 14.9 36.4 37.2 34 64.4 2.4 42.1-29.1 74.3-68 74.3z"  horiz-adv-x="1024" />

    
    <glyph glyph-name="right" unicode="&#58955;" d="M512 384m-448 0a448 448 0 1 1 896 0 448 448 0 1 1-896 0ZM485.6 259.6c-1.3-1.3-2.9-1.9-4.3-2.9-1-1.4-1.6-3.1-2.8-4.3-5.6-5.6-12.9-8.4-20.2-8.4-7.3 0-14.6 2.8-20.2 8.4l-85.7 86.3c-11.2 11.2-11.2 29.4 0 40.7 11.2 11.2 29.3 11.2 40.4 0l65.5-65.9 186.9 188.1c11.2 11.2 29.3 11.2 40.4 0 11.2-11.2 11.2-29.4 0-40.7l-200-201.3z"  horiz-adv-x="1024" />

    
    <glyph glyph-name="packet" unicode="&#58956;" d="M885.3 84.29999999999995V737.1c0 9-1.4 17.5-3.3 25.8 0 0-0.6 2.3-0.8 3.1-0.4 1.9-1.9 7.4-1.9 7.4-11.8 34.4-40 58.7-73 58.7H217.7c-15 0-29-5.3-41-14.1l-2.7-1.8c-21.3-17-35.3-46-35.3-79v-706.3c0-52.4 35.4-94.9 79.1-94.9h588.6c43.6 0 79 42.5 79 94.9v79c-0.1 13.8-9.4 24.9-20.8 24.9s-20.7-11.1-20.8-24.9v-74c0-27.6-18.6-49.9-41.6-49.9H221.9c-23 0-41.6 22.4-41.6 49.9V732.1c0 7.7 1.6 14.8 4.1 21.3L512 538.7l331.1 200.6c0.3-2.4 0.6-4.7 0.6-7.2v-647.9c0-13.8 9.3-25 20.8-25s20.8 11.2 20.8 25.1zM509.6 594.8L230.2 782.1h571.9c4.4 0 8.6-1 12.6-2.6L509.6 594.8zM639.5 243v0.3c11.4 0 20.7 11.1 20.7 24.9 0 13.7-9.3 24.8-20.7 24.8h-95.7l93.1 131.4-0.1 0.2c8.6 9.1 9.3 24.8 1.7 35.1-7.6 10.3-20.7 11.3-29.2 2.1l-87.8-122.6-89.8 127.9c-8.6 9.1-21.6 8.1-29.2-2.1-7.6-10.2-6.8-26 1.7-35.1l-0.1-0.2 98.1-135.6v-1.2l-98.6 0.1v-0.1c-11.4 0-20.7-11.1-20.7-24.8 0-13.8 9.3-24.9 20.7-24.9v-0.1l98.6-0.1v-50.4l-98.6 0.1v-0.1c-11.4 0-20.7-11.2-20.7-24.9 0-13.8 9.3-24.9 20.7-24.9v-0.1l98.6-0.1v-58.4h0.1c0-13.7 9.3-24.8 20.7-24.8 11.4 0 20.7 11.1 20.7 24.8h0.1v58.4h95.6v0.2c11.4 0 20.7 11.2 20.7 24.9 0 13.8-9.3 24.9-20.7 24.9h-95.6V243h95.7z"  horiz-adv-x="1024" />

    
    <glyph glyph-name="reduce" unicode="&#58957;" d="M512-23.299999999999955c224.9 0 407.3 182.3 407.3 407.3S736.9 791.3 512 791.3 104.7 608.9 104.7 384 287.1-23.299999999999955 512-23.299999999999955z m0-40.7C264.6-64 64 136.60000000000002 64 384S264.6 832 512 832s448-200.6 448-448-200.6-448-448-448zM480.2 479.1H577v-30.3h-96.8v30.3z m3-69.4H578v-144.2h-94.8V409.7zM551.6 292v91.4h-42V292h42z m135.9 187.6l29.8-12.7c-14.7-68.4-35.2-126.6-61.1-173.5 3.9-16.6 8.3-30.8 13.2-43 10.8-25.4 20.5-39.1 29.3-40.1 6.4 0.5 10.3 29.8 11.2 88l28.8-13.2c-0.5-72.3-13.2-109-37.6-109-17.1 0-32.7 13.7-47.4 40.6-6.8 11.7-12.7 26.4-18.1 44-25.4-36.2-54.7-64.5-88-84.5l-21 26.9c39.1 22.5 71.4 55.7 97.7 98.7-4.9 19.1-8.8 40.1-12.7 62.6-8.3 49.9-13.7 102.1-16.6 157.4H455.8v-135.9c-2-88.5-20.5-159.3-56.2-212.6l-25.9 23c32.3 45.5 48.9 108.5 50.3 189.6V554.4h169.1c-1 22-1 44-1 66h32.7c0-22 0.5-44 1.5-66h49.9c-7.8 17.6-16.6 33.7-26.4 48.4l28.8 4.9c8.8-15.6 17.1-33.7 24.9-53.3H727v-32.7h-99.2c2-43 5.4-86 10.8-129.5 2-17.6 4.4-34.2 7.3-49.4 17.6 39.6 31.8 85 41.6 136.8zM320.4 600.3c30.8-41.1 54.2-77.2 70.4-108l-27.9-19.5c-17.6 32.7-41.1 69.4-71.4 109.5l28.9 18z m46.9-199.8l30.3-12.2C375.1 316 349.7 248 322.3 184.5l-32.7 14.7c29.8 65.4 55.7 132.8 77.7 201.3z"  horiz-adv-x="1024" />

    
    <glyph glyph-name="special" unicode="&#58958;" d="M826.8 297.5c0 14.2-13.1 25.4-23.3 33.5l-2 2c-34.4 26.5-70.3 51.9-111.4 67.5 52.5 44.9 85.8 111.6 85.8 186.2C775.8 722.1 665.9 832 530.5 832S285.2 722.2 285.2 586.7c0-74.5 33.3-141.1 85.8-186.2-166.9-64-285.6-225.1-286.4-414.4v-40.6c0-0.5 19.7 0.8 62 0v39.7c0.6 196.2 118.8 381.1 384 376.7 80.7-1.4 175.2-32.4 232.8-80.4 15.7-13.1 19.1-13.3 26.1-15.2l3.5-0.3c24.5 0 33.8 6.9 33.8 31.5zM530.5 409.7C403.9 410 343 500.6 343 586.7s69.5 186.8 187.9 186.8c137.3 0 187.9-101.8 187.9-187.9-0.3-86.2-80.3-179.2-188.3-175.9zM612.3 148c0-24.6 19.9-36.3 44.6-36.3h237.9c24.6 0 44.6 11.8 44.6 36.3 0 24.7-19.9 34.1-44.6 34.1H656.9c-24.7-0.1-44.6-9.4-44.6-34.1z m282.3-145.1H656.9c-24.6 0-44.6-8.7-44.6-33.3 0-24.7 19.9-33.6 44.6-33.6h237.9c24.6 0 44.6 9 44.6 33.6-0.1 24.7-20 33.3-44.8 33.3z"  horiz-adv-x="1024" />

    
    <glyph glyph-name="interests" unicode="&#58959;" d="M361 584.2h107.5c6.8 12.7 11.7 25.4 15.2 39.1l36.7-4.9c-3.9-12.2-8.8-23.5-14.7-34.2H667v-239H361v239z m271.7-208.7v41.1H395.2v-41.1h237.5z m-237.5 69.4h237.5V485H395.2v-40.1z m0 68.4h237.5v40.1H395.2v-40.1zM336.5 312c-9.3-38.1-24.4-73.3-45.5-104.6l29.8-19.1c21 33.2 37.1 71.8 48.9 116.8l-33.2 6.9z m235.6-132.5H446.5c-28.3 0-42 14.2-42 41.5v93.3h35.7v-86c0-11.2 5.4-17.1 16.6-17.1h108.5c11.2 0 19.1 2.9 23 7.8 5.9 6.8 10.3 25.9 12.2 57.7l33.7-10.8c-3.9-41.1-10.8-66-20.5-75.3-8.8-7.1-23-11.1-41.6-11.1zM506.6 332c26.4-25.4 46.4-47.9 60.6-67l-26.9-18.6c-14.7 21-34.2 44-59.6 69.4l25.9 16.2z m157.9-11.2l-27.4-17.1c29.8-38.6 53.8-73.8 71.4-105.6l27.9 19.5c-16.7 29.4-40.6 64.1-71.9 103.2zM512-23.299999999999955c224.9 0 407.3 182.3 407.3 407.3S736.9 791.3 512 791.3 104.7 608.9 104.7 384 287.1-23.299999999999955 512-23.299999999999955z m0-40.7C264.6-64 64 136.60000000000002 64 384S264.6 832 512 832s448-200.6 448-448-200.6-448-448-448z"  horiz-adv-x="1024" />

    
    <glyph glyph-name="money2" unicode="&#58960;" d="M466.3-9.700000000000045C244.4-9.700000000000045 64 166.60000000000002 64 384s180.4 393.7 402.3 393.7S868.7 601.4 868.7 384c0-34.8-5.1-70.2-14.7-104.2l-5.1-18.3 71.4 50.5c4.3 3 9.4 4.5 14.7 4.4 8.3 0 15.3-3.7 20.4-10.1 3.8-5 5.1-11.3 4.5-17.6-1.1-6.4-4.8-12.1-10.2-15.8L801.1 168.60000000000002c-2.5-1.2-4.4-2.6-6.4-3.1-2.5-0.7-4.4-1.2-6.4-1.2h-2.6c-3.8 0-6.4 1.2-9.6 2.5-4.5 2.5-7.6 4.4-9.6 7.5l-1.9 2.6-72 168c-2.6 5.8-2.6 12.5 0 18.4 2.3 6.1 7.2 11 13.4 13.3 3 1.2 6.3 1.9 9.6 1.9 10.2 0 19.1-5.7 22.9-15.2l51-120.1 5.7 15.8c16 40 24.3 82.7 24.2 125.8 0 190.2-158.1 345.7-352.6 345.7S113.1 574.3 113.1 384s158.1-345.7 352.6-345.7c63.4 0.1 125.7 16.8 180.4 48.6l5.1 1.9c15.9 9.5 29.3 18.4 41.5 28.4 4.4 3.7 10.1 5.8 15.9 5.7 7.6 0 14.6-3.1 19.1-8.8 4.5-5.1 6.4-11.3 5.7-17.7-0.7-6.4-3.9-12.3-8.9-16.4-15.4-12.7-31.8-24.1-49.1-34.1-2.4-1.3-5-2.1-7.7-2.5-61.4-34.5-130.7-52.8-201.4-53.1z m-2.6 182.6c-13.5-0.1-24.6 10.6-24.9 24v71.4h-69.5c-13.4 0-24.9 10.7-24.9 24s10.9 24 24.9 24h70.1v44.3H370c-13.4 0-24.9 10.8-24.9 24s10.9 24 24.2 24h70.1v27.2L349 521.7c-4.7 4.5-7.4 10.6-7.7 17.1 0 6.3 2.5 12.6 7 17.1 4.5 5 11 7.8 17.8 7.6 6.4 0 12.7-2.5 17.2-7l82.9-78.3 82.9 78.3c4.6 4.5 10.8 7 17.3 7 7 0 13.4-2.5 17.8-7.6 4.5-4.4 7-10.8 7-17.1 0-6.3-2.5-12.6-7.6-17.1l-95-90.4v-22.7h69.5c13.4 0 24.9-10.8 24.9-24s-10.9-24-24.9-24H488v-44.3h69.5c13.4 0 24.9-10.7 24.9-24s-10.9-24-24.9-24H488V197c0.6-12.7-10.9-24.1-24.3-24.1z"  horiz-adv-x="1024" />

    
    <glyph glyph-name="gift2" unicode="&#58961;" d="M839 664c13.7 21.9 26 50.3 23.2 79.9-1.8 19.5-11.1 47.4-45.1 69.7-28.4 18.6-65 23.2-105.5 13-69.2-17.3-148.7-77.2-199.6-146.8-50.9 69.6-130.4 129.5-199.7 146.9-40.5 10.2-77.1 5.6-105.5-13-34-22.3-43.3-50.2-45.1-69.7-2.8-29.6 9.5-58 23.2-79.9h-37c-46.3 0-84-37.7-84-84v-112c0-38.7 26.5-71.1 62.2-80.8-3.9-9.7-6.2-20.2-6.2-31.2v-336c0-46.3 37.7-84 84-84h307.7c0.4-0.1 308.3 0 308.3 0 46.3 0 84 37.7 84 84v336c0 11.1-2.2 21.6-6.2 31.3 35.7 9.7 62.1 42 62.1 80.7V580c0 46.3-37.7 84-84 84H839zM725.2 772.3c25.3 6.4 45.9 4.5 61.2-5.5 16.6-10.9 19.4-21.2 20-28 2.7-27.6-27.5-63.9-38.6-74.8H570.7c43.2 51.5 104.3 95.7 154.5 108.3z m-507.6-33.5c0.7 6.8 3.4 17.1 20 28 15.3 10 35.8 11.9 61.2 5.5C349 759.8 410 715.5 453.2 664h-197c-11.2 11-41.3 47.2-38.6 74.8z m-91.8-164.3c0 14.2 12.3 25.7 27.3 25.7h328v-154.5h-328c-15.1 0-27.3 11.5-27.3 25.7V574.5z m61.8-549.1v331c0 15.2 12 27.6 26.7 27.6h266.8v-386.2H214.3c-14.7 0-26.7 12.3-26.7 27.6z m648.8 0c0-15.2-12-27.6-26.7-27.6H542.9V384h266.8c14.7 0 26.7-12.4 26.7-27.6v-331z m61.8 446.1c0-14.2-12.3-25.7-27.3-25.7h-328V600.3h328c15.1 0 27.3-11.5 27.3-25.7v-103.1z"  horiz-adv-x="1024" />

    
    <glyph glyph-name="security" unicode="&#58962;" d="M930.4 696.1c0 14.2-9.5 23.6-23.6 28.4l-373.5 104c-14.2 4.7-33.1 4.7-42.6 0l-373.5-104c-14.2-4.7-18.9-14.2-23.6-28.4 0-4.7-18.9-151.3 18.9-316.8C136.1 280 173.9 194.89999999999998 230.7 124c66.2-85.1 156-146.6 264.8-184.4 9.5-4.7 18.9-4.7 33.1 0 108.8 37.8 198.6 99.3 264.8 184.4 52 70.9 94.6 156 118.2 255.3 37.8 165.5 18.8 312 18.8 316.8z m-85.1-302.6c-47.3-198.6-160.8-331-335.7-387.7-174.9 61.5-288.4 189.1-335.7 387.7-28.4 122.9-23.6 231.7-18.9 279l354.6 99.3 354.6-99.3c4.8-47.4 9.5-160.8-18.9-279zM452.9 256.4L334.7 369.79999999999995c-14.2 14.2-14.2 33.1 0 47.3 14.2 14.2 33.1 14.2 47.3 0l94.6-89.8L670.5 507c14.2 14.2 33.1 14.2 47.3 0 14.2-14.2 14.2-33.1 0-47.3L500.2 256.4c-4.7-4.7-14.2-9.5-23.6-9.5-9.5 0-19 4.7-23.7 9.5z"  horiz-adv-x="1024" />

    
    <glyph glyph-name="money3" unicode="&#58963;" d="M512-23.299999999999955c224.9 0 407.3 182.3 407.3 407.3S736.9 791.3 512 791.3 104.7 608.9 104.7 384 287.1-23.299999999999955 512-23.299999999999955z m0-40.7C264.6-64 64 136.60000000000002 64 384S264.6 832 512 832s448-200.6 448-448-200.6-448-448-448zM349.1 546.9l120.4-204.8h-87.4v-28.5H486v-55.9H382.1v-28.5H486v-89.6h52v89.6h104.4v28.5H538v55.9h104.4v28.5h-87.9l120.4 204.8h-58.4L512 359.79999999999995 407.5 546.9z"  horiz-adv-x="1024" />

    
    <glyph glyph-name="add" unicode="&#58964;" d="M470 468H64v-112h406v-420h112V356h378V468H582V832H470v-364z"  horiz-adv-x="1024" />

    
    <glyph glyph-name="reduce2" unicode="&#58965;" d="M64 328h896V440H64z"  horiz-adv-x="1024" />

    
    <glyph glyph-name="qa" unicode="&#58966;" d="M818.5 81.5h-103L694.7-64 497.6 81.5H205.5c-37.5 0-73.5 14.9-100 41.3S64 185.20000000000005 64 222.60000000000002V690.9c0 37.4 14.9 73.3 41.4 99.7S168 832 205.5 832h613.1c37.5 0 73.5-14.9 100-41.3 26.5-26.5 41.4-62.3 41.4-99.7v-468.3c0-37.4-14.9-73.3-41.4-99.7-26.6-26.6-62.6-41.5-100.1-41.5zM311.2 595.7v-424.2h-40.5V595.7h40.5z m110.4-4.1L386.2 573c-19.4 37.2-42.5 72.3-69 104.6l37 16.5c25.7-31.8 48.2-66.1 67.4-102.5zM593 514.1V302H394.4V514.1H593z m-40.2-38.9H434.7v-134.6h118.1V475.2z m43.7-300.9l-9.9 37.9h60.7c21 0 31.5 12.4 31.5 37.2V617.1H464.5v39.8h254.2v-419.2c0-41.9-21.6-63.4-63.4-63.4h-58.8z"  horiz-adv-x="1024" />

    
    <glyph glyph-name="edit" unicode="&#58967;" d="M634.1 649.3L75.2 150 64-26.200000000000045l177.2-0.5 558.9 499.3-166 176.7z m310.4-44.1c20 18.2 20.5 47.5 2 67.2L847.4 779c-18.5 19.7-47.3 21.1-67.8 2.9l-90.8-81.6 164-177.6 91.7 82.5z"  horiz-adv-x="1024" />

    
    <glyph glyph-name="close" unicode="&#58968;" d="M512 442.1L134.2 820C118.1 836 92.1 836 76 820c-16.1-16.1-16.1-42.1 0-58.1L453.9 384 76 6.2000000000000455c-16.1-16.1-16.1-42.1 0-58.1 16.1-16.1 42.1-16.1 58.1 0L512 325.9 889.8-52c16.1-16.1 42.1-16.1 58.1 0 16.1 16.1 16.1 42.1 0 58.1L570.1 384 948 761.8c16.1 16.1 16.1 42.1 0 58.1-16.1 16.1-42.1 16.1-58.1 0L512 442.1z"  horiz-adv-x="1024" />

    
    <glyph glyph-name="problem" unicode="&#58969;" d="M512 832C264.6 832 64 631.4 64 384s200.6-448 448-448 448 200.6 448 448S759.4 832 512 832z m-14.4-718.7c-28.7 0-51.9 23.7-51.9 52.9s23.2 52.9 51.9 52.9 52-23.7 52-52.9-23.3-52.9-52-52.9z m145.1 332.6c-6.7-13-15.3-24.9-25.5-35.3-9.9-9.9-27.6-26.7-53.1-50.1-6-5.5-11.7-11.3-17-17.4-3.7-4.2-6.9-8.8-9.5-13.8-2-4-3.7-8.1-4.9-12.4-1.1-4.2-2.8-11.5-5.2-22-3.9-22.2-16.3-33.3-37.1-33.3-10.8 0-19.9 3.6-27.3 10.9-7.4 7.3-11 18.1-11 32.4 0 17.9 2.7 33.5 8.1 46.6 5.4 13.1 12.6 24.6 21.5 34.6 9 9.9 21 21.7 36.1 35.4 13.3 11.9 22.9 20.9 28.8 27 6 6.1 10.9 12.9 15 20.3 4 7.5 6.1 15.6 6.1 24.3 0 17.1-6.2 31.5-18.6 43.2-12.3 11.7-28.3 17.6-47.8 17.6-22.8 0-39.7-5.9-50.5-17.8-10.8-11.9-19.9-29.3-27.4-52.4-7.1-24.1-20.5-36.2-40.2-36.2-11.6 0-21.5 4.2-29.5 12.7-8 8.4-11.9 17.5-11.9 27.4 0 20.3 6.3 40.8 19 61.6 12.7 20.8 31.1 38.1 55.4 51.7 24.3 13.7 52.6 20.5 85 20.5 30.1 0 56.7-5.7 79.7-17.2 23.1-11.4 40.9-27 53.4-46.6 12.6-19.7 18.9-41 18.9-64.1 0.2-18-3.4-33.9-10.5-47.6z"  horiz-adv-x="1024" />

    
    <glyph glyph-name="customer2" unicode="&#58970;" d="M516.2 125.10000000000002c4.5 0 9.1 0.3 13.8 0.8 44.5 5.2 82.1 35.2 96.1 76.7 1 3.1-0.5 6.4-3.6 7.8-3.1 1.4-6.7 0.2-8.5-2.6-0.2-0.3-17.9-27.9-86.5-36.9-10.3-1.3-20.3-2-29.8-2-48.1 0-69.6 17.6-69.8 17.8-2.4 2.1-6.1 2.1-8.6 0.1-2.6-2-3.1-5.6-1.4-8.3 21.1-32.9 58.7-53.4 98.3-53.4z m369.4 412.4c-0.6 0-1.1-0.1-1.7-0.1C843.6 706.1 689.8 832 505.4 832c-189.5 0-346.8-132.9-381.7-308.6-33.9-5.9-59.7-34.8-59.7-69.7V314c0-39.2 32.4-70.9 72.4-70.9 22.5 0 42.5 10.3 55.8 26.2 32-82 97.2-148.2 179.8-183.1 0.2 0.4 1.7 3.4 3.7 5.7 1.3 1.6 2.8 3 4 3 1.3 0 2.4-0.5 3.5-1.2-19.1 13.8-88.1 84.6-103 183.4-6.5 43.5 27 86.2 66.3 93.2 62.8 11.3 125.5 24.3 188.3 35.4 40 7.1 67.3 28.3 84.1 63.7 3.9 8.3 9.6 25 12.1 49.1 0.7 3.6 3.8 6.3 7.7 6.3 2.6 0 4.8-1.3 6.2-3.1l1.7 1c24.8-34.8 74-112 81-193.4 8.1-93 3.6-156.7-70-221.9l-0.3-0.3c-1-1.1-1.6-2.5-1.6-4 0-2 1.1-3.7 2.8-4.8 0.6-0.2 1.2-0.6 1.8-0.8 0.5-0.1 0.9-0.3 1.4-0.3 0.5 0 0.9 0.2 1.4 0.3 1 0.5 2 1.1 3.1 1.7 74.4 39.7 131.4 105.9 157.8 185.6 10.7-15.4 27.3-26.4 46.8-30.3-31.3-137-157.6-222.8-314-235.8-9.4 22.5-32.4 38.5-59.6 38.5-35.4 0-64.1-27.1-64.1-60.6s28.7-60.6 64.1-60.6c28.6 0 52.4 17.8 60.8 42.1 181.1 14.3 326.2 118.5 356.5 280.4 26.7 10.9 45.5 36.3 45.5 66V465.9c0 39.5-33.3 71.6-74.4 71.6z m-66.8-40.6c-47.2 123.9-169.6 212.4-313.6 212.4-143.3 0-265.3-87.8-312.9-210.8-2.3 2.8-5.2 5.2-7.9 7.6 27 150 160.3 264 321 264 159.9 0 292.9-112.9 320.7-261.9-2.7-3.6-5.2-7.3-7.3-11.3z"  horiz-adv-x="1024" />

    
    <glyph glyph-name="top" unicode="&#58971;" d="M512 384m-448 0a448 448 0 1 1 896 0 448 448 0 1 1-896 0ZM532.4 343.29999999999995H656l-144 144-144-144h123.6v-203.6h40.7V343.29999999999995z m-183.3 224h325.8c11.2 0 20.4-9.1 20.4-20.4 0-11.2-9.1-20.4-20.4-20.4H349.1c-11.2 0-20.4 9.1-20.4 20.4 0 11.3 9.1 20.4 20.4 20.4z"  horiz-adv-x="1024" />

    
    <glyph glyph-name="avatar" unicode="&#58972;" d="M58.5 132.20000000000005c96.2-155.9 263.3-259.1 453.5-259.1s357.3 103.1 453.5 259.1c-117 120.2-277 194.4-453.5 194.4S175.5 252.39999999999998 58.5 132.20000000000005zM512 417.3m-226.7 0a226.7 226.7 0 1 1 453.4 0 226.7 226.7 0 1 1-453.4 0Z"  horiz-adv-x="1026" />

    
    <glyph glyph-name="nodata" unicode="&#58893;" d="M511.8 384.6m-448 0a448 448 0 1 1 896 0 448 448 0 1 1-896 0ZM450.2 664.6H764c24.7 0 44.8-20.1 44.8-44.8v-417.3c0-24.7-20.1-44.8-44.8-44.8H450.2c-24.7 0-44.8 20.1-44.8 44.8V619.8c0 24.8 20.1 44.8 44.8 44.8zM461.4 642.2c-18.6 0-33.6-15-33.6-33.6v-394.9c0-18.6 15-33.6 33.6-33.6h291.4c18.6 0 33.6 15 33.6 33.6V608.6c0 18.6-15 33.6-33.6 33.6H461.4z m0 22.4h291.4c30.9 0 56-25.1 56-56v-394.9c0-30.9-25.1-56-56-56H461.4c-30.9 0-56 25.1-56 56V608.6c0 30.9 25.1 56 56 56zM310.2 603h347.2c24.7 0 44.8-20.1 44.8-44.8v-417.3c0-24.7-20.1-44.8-44.8-44.8H310.2c-24.7 0-44.8 20.1-44.8 44.8V558.2c0 24.8 20.1 44.8 44.8 44.8zM299 586.2h324.8c24.7 0 44.8-20.1 44.8-44.8v-436.8c0-24.7-20.1-44.8-44.8-44.8H299c-24.7 0-44.8 20.1-44.8 44.8V541.4c0 24.8 20.1 44.8 44.8 44.8zM299 580.6c-18.6 0-33.6-15-33.6-33.6v-436.8c0-18.6 15-33.6 33.6-33.6h324.8c18.6 0 33.6 15 33.6 33.6V547c0 18.6-15 33.6-33.6 33.6H299z m0 22.4h324.8c30.9 0 56-25.1 56-56v-436.8c0-30.9-25.1-56-56-56H299c-30.9 0-56 25.1-56 56V547c0 30.9 25.1 56 56 56zM315.8 496.6h134.4c6.2 0 11.2 5 11.2 11.2 0 6.2-5 11.2-11.2 11.2H315.8c-6.2 0-11.2-5-11.2-11.2 0-6.2 5.1-11.2 11.2-11.2zM315.8 384.6h112c6.2 0 11.2 5 11.2 11.2 0 6.2-5 11.2-11.2 11.2h-112c-6.2 0-11.2-5-11.2-11.2 0-6.2 5.1-11.2 11.2-11.2zM315.8 440.6h224c6.2 0 11.2 5 11.2 11.2 0 6.2-5 11.2-11.2 11.2h-224c-6.2 0-11.2-5-11.2-11.2 0-6.2 5.1-11.2 11.2-11.2zM468 144.79999999999995l33.6-33.6c8.7-8.7 22.9-8.7 31.7 0 8.7 8.7 8.7 22.9 0 31.7l-33.6 33.6c-8.7 8.7-22.9 8.7-31.7 0-8.7-8.8-8.7-23 0-31.7zM535.2 140.89999999999998l63.4-63.4c8.7-8.7 8.7-22.9 0-31.7-8.7-8.7-22.9-8.7-31.7 0l-63.4 63.4c-8.7 8.7-8.7 22.9 0 31.7 8.8 8.8 23 8.8 31.7 0zM422.2 132.60000000000002c-55.7 0-100.8 45.1-100.8 100.8s45.1 100.8 100.8 100.8S523 289.1 523 233.39999999999998s-45.1-100.8-100.8-100.8z m0 22.4c43.3 0 78.4 35.1 78.4 78.4s-35.1 78.4-78.4 78.4-78.4-35.1-78.4-78.4 35.1-78.4 78.4-78.4zM361.6 260.4c-4.3-9.6-6.6-20.4-6.6-31.6 0-9.5 1.6-18.7 4.8-27.2 2.1-5.8 8.6-8.8 14.4-6.6s8.8 8.6 6.6 14.4c-2.2 6-3.4 12.6-3.4 19.5 0 8.1 1.6 15.8 4.6 22.5 2.5 5.6 0 12.3-5.7 14.8s-12.2-0.2-14.7-5.8z"  horiz-adv-x="1024" />

    


  </font>
</defs>
</svg>
